<svg xmlns="http://www.w3.org/2000/svg" width="24" height="24" viewBox="0 0 24 24"><g fill="none" stroke="currentColor" stroke-linecap="round" stroke-linejoin="round" stroke-width="1.5" color="currentColor"><path d="M4 14h2.395c.294 0 .584.066.847.194l2.042.988c.263.127.553.193.848.193h1.042c1.008 0 1.826.791 1.826 1.767c0 .04-.027.074-.066.085l-2.541.703a1.95 1.95 0 0 1-1.368-.124L6.842 16.75"/><path d="m13 16.5l4.593-1.411a1.985 1.985 0 0 1 2.204.753c.369.51.219 1.242-.319 1.552l-7.515 4.337a2 2 0 0 1-1.568.187L4 20.02M15 12h-2c-1.886 0-2.828 0-3.414-.586S9 9.886 9 8V6c0-1.886 0-2.828.586-3.414S11.114 2 13 2h2c1.886 0 2.828 0 3.414.586S19 4.114 19 6v2c0 1.886 0 2.828-.586 3.414S16.886 12 15 12m-2-7h2"/></g></svg>