<svg xmlns="http://www.w3.org/2000/svg" width="24" height="24" viewBox="0 0 24 24"><g fill="none"><path fill="currentColor" d="M2 3v-.75a.75.75 0 0 0-.75.75zm11 0h.75a.75.75 0 0 0-.75-.75zm0 6v-.75a.75.75 0 0 0-.75.75zM2 3.75h11v-1.5H2zM12.25 3v16h1.5V3zm-9.5 14V3h-1.5v14zM13 9.75h5v-1.5h-5zM21.25 13v4h1.5v-4zm-7.5 6V9h-1.5v10zm5.134.884a1.25 1.25 0 0 1-1.768 0l-1.06 1.06a2.75 2.75 0 0 0 3.889 0zm-1.768-1.768a1.25 1.25 0 0 1 1.768 0l1.06-1.06a2.75 2.75 0 0 0-3.889 0zM6.884 19.884a1.25 1.25 0 0 1-1.768 0l-1.06 1.06a2.75 2.75 0 0 0 3.889 0zm-1.768-1.768a1.25 1.25 0 0 1 1.768 0l1.06-1.06a2.75 2.75 0 0 0-3.889 0zm13.768 0c.244.244.366.563.366.884h1.5c0-.703-.269-1.408-.805-1.945zm.366.884c0 .321-.122.64-.366.884l1.06 1.06A2.74 2.74 0 0 0 20.75 19zM16 18.25h-3v1.5h3zm1.116 1.634A1.24 1.24 0 0 1 16.75 19h-1.5c0 .703.269 1.408.805 1.945zM16.75 19c0-.321.122-.64.366-.884l-1.06-1.06A2.74 2.74 0 0 0 15.25 19zm-11.634.884A1.24 1.24 0 0 1 4.75 19h-1.5c0 .703.269 1.408.805 1.945zM4.75 19c0-.321.122-.64.366-.884l-1.06-1.06A2.74 2.74 0 0 0 3.25 19zm8.25-.75H8v1.5h5zm-6.116-.134c.244.244.366.563.366.884h1.5c0-.703-.269-1.408-.805-1.945zM7.25 19c0 .321-.122.64-.366.884l1.06 1.06A2.74 2.74 0 0 0 8.75 19zm14-2c0 .69-.56 1.25-1.25 1.25v1.5A2.75 2.75 0 0 0 22.75 17zM18 9.75A3.25 3.25 0 0 1 21.25 13h1.5A4.75 4.75 0 0 0 18 8.25zM1.25 17A2.75 2.75 0 0 0 4 19.75v-1.5c-.69 0-1.25-.56-1.25-1.25z"/><path stroke="currentColor" stroke-linecap="round" stroke-linejoin="round" stroke-width="1.5" d="M2 8h3m-3 4h5"/></g></svg>